HIERARCHY
ROOT Hips
{
    OFFSET   0.000000   0.000000   0.000000
    CHANNELS 6 Xposition Yposition Zposition Zrotation Xrotation Yrotation
    JOINT Chest
    {
        OFFSET   0.000000   8.007230   0.000000
        CHANNELS 3 Zrotation Xrotation Yrotation
        JOINT Chest2
        {
            OFFSET   0.000000  22.077100   0.000000
            CHANNELS 3 Zrotation Xrotation Yrotation
            JOINT Neck
            {
                OFFSET   0.000000  23.254700   0.000000
                CHANNELS 3 Zrotation Xrotation Yrotation
                JOINT Head
                {
                    OFFSET   0.000010  14.370000   1.956610
                    CHANNELS 3 Zrotation Xrotation Yrotation
                    End Site
                    {
                        OFFSET   0.000000  19.566000   0.000000
                    }
                }
            }
            JOINT LeftCollar
            {
                OFFSET   3.911900  19.017000  -0.467063
                CHANNELS 3 Zrotation Xrotation Yrotation
                JOINT LeftShoulder
                {
                    OFFSET  10.383700   0.000000   0.000000
                    CHANNELS 3 Zrotation Xrotation Yrotation
                    JOINT LeftElbow
                    {
                        OFFSET  26.662100   0.001671   0.000522
                        CHANNELS 3 Zrotation Xrotation Yrotation
                        JOINT LeftWrist
                        {
                            OFFSET  28.869000   0.000037  -0.000114
                            CHANNELS 3 Zrotation Xrotation Yrotation
                            JOINT LeftFinger0
                            {
                                OFFSET   2.044650  -2.323450   3.252850
                                CHANNELS 3 Zrotation Xrotation Yrotation
                                JOINT LeftFinger01
                                {
                                    OFFSET   3.088140   0.000000   0.000000
                                    CHANNELS 3 Zrotation Xrotation Yrotation
                                    JOINT LeftFinger02
                                    {
                                        OFFSET   2.639460   0.000000   0.000000
                                        CHANNELS 3 Zrotation Xrotation Yrotation
                                        End Site
                                        {
                                            OFFSET   2.582190   0.000000   0.000000
                                        }
                                    }
                                }
                            }
                            JOINT LeftFinger1
                            {
                                OFFSET   8.364480   0.000000   3.252850
                                CHANNELS 3 Zrotation Xrotation Yrotation
                                JOINT LeftFinger11
                                {
                                    OFFSET   4.646930   0.000000   0.000000
                                    CHANNELS 3 Zrotation Xrotation Yrotation
                                    JOINT LeftFinger12
                                    {
                                        OFFSET   2.323470   0.000000   0.000000
                                        CHANNELS 3 Zrotation Xrotation Yrotation
                                        End Site
                                        {
                                            OFFSET   2.273050   0.000000   0.000000
                                        }
                                    }
                                }
                            }
                            JOINT LeftFinger2
                            {
                                OFFSET   8.364490   0.000016   1.078090
                                CHANNELS 3 Zrotation Xrotation Yrotation
                                JOINT LeftFinger21
                                {
                                    OFFSET   5.111620   0.000000   0.000000
                                    CHANNELS 3 Zrotation Xrotation Yrotation
                                    JOINT LeftFinger22
                                    {
                                        OFFSET   2.788150   0.000013   0.000000
                                        CHANNELS 3 Zrotation Xrotation Yrotation
                                        End Site
                                        {
                                            OFFSET   2.727660   0.000000   0.000000
                                        }
                                    }
                                }
                            }
                            JOINT LeftFinger3
                            {
                                OFFSET   7.899780   0.000016  -1.078090
                                CHANNELS 3 Zrotation Xrotation Yrotation
                                JOINT LeftFinger31
                                {
                                    OFFSET   4.646930   0.000000   0.000000
                                    CHANNELS 3 Zrotation Xrotation Yrotation
                                    JOINT LeftFinger32
                                    {
                                        OFFSET   2.323470   0.000000   0.000000
                                        CHANNELS 3 Zrotation Xrotation Yrotation
                                        End Site
                                        {
                                            OFFSET   2.273050   0.000000   0.000000
                                        }
                                    }
                                }
                            }
                            JOINT LeftFinger4
                            {
                                OFFSET   7.435080   0.000000  -3.252850
                                CHANNELS 3 Zrotation Xrotation Yrotation
                                JOINT LeftFinger41
                                {
                                    OFFSET   3.717550   0.000000   0.000000
                                    CHANNELS 3 Zrotation Xrotation Yrotation
                                    JOINT LeftFinger42
                                    {
                                        OFFSET   1.858760   0.000000   0.000000
                                        CHANNELS 3 Zrotation Xrotation Yrotation
                                        End Site
                                        {
                                            OFFSET   1.818440   0.000000   0.000000
                                        }
                                    }
                                }
                            }
                        }
                    }
                }
            }
            JOINT RightCollar
            {
                OFFSET  -3.911900  19.017000  -0.467064
                CHANNELS 3 Zrotation Xrotation Yrotation
                JOINT RightShoulder
                {
                    OFFSET -10.383700   0.000000   0.000000
                    CHANNELS 3 Zrotation Xrotation Yrotation
                    JOINT RightElbow
                    {
                        OFFSET -26.662100   0.001633   0.000260
                        CHANNELS 3 Zrotation Xrotation Yrotation
                        JOINT RightWrist
                        {
                            OFFSET -28.869000  -0.000045  -0.000080
                            CHANNELS 3 Zrotation Xrotation Yrotation
                            JOINT RightFinger0
                            {
                                OFFSET  -2.044660  -2.323490   3.252850
                                CHANNELS 3 Zrotation Xrotation Yrotation
                                JOINT RightFinger01
                                {
                                    OFFSET  -3.088140   0.000000   0.000000
                                    CHANNELS 3 Zrotation Xrotation Yrotation
                                    JOINT RightFinger02
                                    {
                                        OFFSET  -2.639450   0.000000   0.000000
                                        CHANNELS 3 Zrotation Xrotation Yrotation
                                        End Site
                                        {
                                            OFFSET  -2.582190   0.000000   0.000000
                                        }
                                    }
                                }
                            }
                            JOINT RightFinger1
                            {
                                OFFSET  -8.364480   0.000000   3.252850
                                CHANNELS 3 Zrotation Xrotation Yrotation
                                JOINT RightFinger11
                                {
                                    OFFSET  -4.646920   0.000000   0.000000
                                    CHANNELS 3 Zrotation Xrotation Yrotation
                                    JOINT RightFinger12
                                    {
                                        OFFSET  -2.323470   0.000000   0.000000
                                        CHANNELS 3 Zrotation Xrotation Yrotation
                                        End Site
                                        {
                                            OFFSET  -2.273050   0.000000   0.000000
                                        }
                                    }
                                }
                            }
                            JOINT RightFinger2
                            {
                                OFFSET  -8.364480   0.000000   1.078090
                                CHANNELS 3 Zrotation Xrotation Yrotation
                                JOINT RightFinger21
                                {
                                    OFFSET  -5.111610   0.000000   0.000000
                                    CHANNELS 3 Zrotation Xrotation Yrotation
                                    JOINT RightFinger22
                                    {
                                        OFFSET  -2.788160   0.000000   0.000000
                                        CHANNELS 3 Zrotation Xrotation Yrotation
                                        End Site
                                        {
                                            OFFSET  -2.727660   0.000000   0.000000
                                        }
                                    }
                                }
                            }
                            JOINT RightFinger3
                            {
                                OFFSET  -7.899780   0.000000  -1.078090
                                CHANNELS 3 Zrotation Xrotation Yrotation
                                JOINT RightFinger31
                                {
                                    OFFSET  -4.646930   0.000000   0.000000
                                    CHANNELS 3 Zrotation Xrotation Yrotation
                                    JOINT RightFinger32
                                    {
                                        OFFSET  -2.323470   0.000000   0.000000
                                        CHANNELS 3 Zrotation Xrotation Yrotation
                                        End Site
                                        {
                                            OFFSET  -2.273050   0.000000   0.000000
                                        }
                                    }
                                }
                            }
                            JOINT RightFinger4
                            {
                                OFFSET  -7.435090   0.000000  -3.252850
                                CHANNELS 3 Zrotation Xrotation Yrotation
                                JOINT RightFinger41
                                {
                                    OFFSET  -3.717550   0.000000   0.000000
                                    CHANNELS 3 Zrotation Xrotation Yrotation
                                    JOINT RightFinger42
                                    {
                                        OFFSET  -1.858760   0.000000   0.000000
                                        CHANNELS 3 Zrotation Xrotation Yrotation
                                        End Site
                                        {
                                            OFFSET  -1.818440   0.000000   0.000000
                                        }
                                    }
                                }
                            }
                        }
                    }
                }
            }
        }
    }
    JOINT LeftHip
    {
        OFFSET   9.782990   0.000000   0.000000
        CHANNELS 3 Zrotation Xrotation Yrotation
        JOINT LeftKnee
        {
            OFFSET  -0.000063 -41.789100   0.001657
            CHANNELS 3 Zrotation Xrotation Yrotation
            JOINT LeftAnkle
            {
                OFFSET   0.000078 -41.133200  -0.000113
                CHANNELS 3 Zrotation Xrotation Yrotation
                JOINT LeftToe
                {
                    OFFSET   0.000000  -6.358970  14.674500
                    CHANNELS 3 Zrotation Xrotation Yrotation
                    End Site
                    {
                        OFFSET   0.000000   0.000000   3.913200
                    }
                }
            }
        }
    }
    JOINT RightHip
    {
        OFFSET  -9.782990   0.000000   0.000000
        CHANNELS 3 Zrotation Xrotation Yrotation
        JOINT RightKnee
        {
            OFFSET   0.000053 -41.789200   0.000277
            CHANNELS 3 Zrotation Xrotation Yrotation
            JOINT RightAnkle
            {
                OFFSET   0.000030 -41.133200  -0.000150
                CHANNELS 3 Zrotation Xrotation Yrotation
                JOINT RightToe
                {
                    OFFSET   0.000000  -6.358960  14.674500
                    CHANNELS 3 Zrotation Xrotation Yrotation
                    End Site
                    {
                        OFFSET   0.000000   0.000000   3.913200
                    }
                }
            }
        }
    }
}
MOTION
Frames: 6
Frame Time:   0.016667
  2.049190  89.400500  -2.263180   4.685090 -23.715000  18.142900  -1.479010  10.528800   4.538710  -3.918040  20.898400   9.604530 -11.887400  -5.985560  -1.257560 -20.024200 -10.580300   9.365270   0.272961  -3.976400   0.585400 -50.529000  -2.267930 -73.790800  28.680000 -29.780400 -95.709700  -5.584370  29.989600  -4.644650  46.994900  34.494000 -53.224700 -22.084400   0.003790   0.001555  -6.042210  -0.000455   0.000160 -18.894400   3.040830  -8.809940 -15.650500  -0.003890   0.003557 -10.955300  -0.001569   0.001366 -23.511800  -1.774340   4.070800 -23.574900   0.000340  -0.000334 -15.700900   0.001134   0.003289 -22.589800  -1.708700   4.099120 -22.651100  -0.002128  -0.000516 -15.085600  -0.007260  -0.000996 -24.639600  -2.012030   4.376770 -37.074400   0.000147   0.001120 -24.691500  -0.001406  -0.001982   0.976260  -0.753574   2.708750  77.663200  28.517900   2.561230  -0.833199  -0.971871  17.770300 -10.631100  -6.108770  -0.201986 -37.537300  27.782200  59.028500  30.143900  -0.040814   0.023814  10.072200  -0.017924   0.018394  28.835500   7.834800  13.906600  24.375800  -0.095419   0.066109  17.063100  -0.057365   0.057547  28.109100   4.587810   8.516420  35.622800  -0.084372   0.110070  23.724800  -0.032123   0.086549  27.312300   3.859220   7.425720  29.514700  -0.100276   0.128045  19.656700  -0.037931   0.101410  31.513300   0.974437   1.588840  47.290700  -0.105075   0.194154  31.495300  -0.010388   0.146674   1.439100  22.373500   6.635270   0.584822   0.527247  -0.484280  -2.413210   0.285270  -3.357950  -0.000000   0.000000   0.000000   2.930260  20.332600  -4.909760  -0.565272  13.168500 -21.819700   1.193910  -9.786140  -8.364750  -0.000000   0.000000  -0.000000
  2.020050  89.398600  -2.239480   4.636690 -23.707600  18.050400  -1.522440  10.500500   4.588060  -4.013300  20.836000   9.711780 -11.862500  -6.091200  -1.276880 -20.000400 -10.773400   9.425680   0.228214  -3.875380   0.569094 -50.730100  -2.381310 -73.579100  28.734400 -29.871400 -95.904100  -5.250670  30.810900  -4.826580  46.780900  34.211600 -53.339200 -22.160400   0.003799   0.001654  -6.080210  -0.000440   0.000161 -18.903100   3.041070  -8.804300 -15.657800  -0.003956   0.003615 -10.960400  -0.001637   0.001308 -23.525900  -1.764880   4.046580 -23.588300   0.000275  -0.000319 -15.709800   0.001114   0.003338 -22.549100  -1.696750   4.075940 -22.609500  -0.002239  -0.000462 -15.057900  -0.007432  -0.000963 -24.486100  -2.005290   4.397760 -36.844000   0.000077   0.001212 -24.538000  -0.001506  -0.001888   0.985599  -0.734685   2.670970  77.698600  28.542500   2.549140  -0.819269  -0.910589  17.798100 -10.641700  -6.092380  -0.180229 -37.558000  27.818100  59.004800  30.149300  -0.028706   0.017337  10.074800  -0.012567   0.013213  28.798300   7.821700  13.903000  24.343300  -0.047829   0.036648  17.040300  -0.028624   0.030188  28.106800   4.579230   8.502540  35.554900  -0.036970   0.051893  23.679500  -0.013786   0.039995  27.299600   3.862100   7.434610  29.455000  -0.045311   0.062532  19.617000  -0.016871   0.048459  31.480900   0.981230   1.600680  47.242000  -0.039133   0.069510  31.463100  -0.006298   0.052727   1.464860  22.374500   6.651600   0.595047   0.532096  -0.515205  -2.329130   0.240010  -3.266930  -0.000000   0.000000   0.000000   2.960310  20.299800  -4.896140  -0.558848  13.198200 -21.799100   1.173610  -9.817560  -8.331640  -0.000000   0.000000   0.000000
  1.990710  89.395600  -2.215380   4.583950 -23.701100  17.956800  -1.562170  10.471300   4.641260  -4.101540  20.772000   9.826080 -11.837900  -6.212860  -1.299510 -19.980300 -10.995100   9.488390   0.176467  -3.762870   0.528591 -50.954600  -2.498240 -73.364900  28.799500 -29.977500 -96.112400  -4.938000  31.633800  -5.043740  46.483600  33.871200 -53.486800 -22.248300   0.003809   0.001735  -6.124140  -0.000424   0.000164 -18.916700   3.042410  -8.803500 -15.669000  -0.004025   0.003669 -10.968300  -0.001706   0.001251 -23.548200  -1.748330   4.004680 -23.609300   0.000201  -0.000304 -15.723800   0.001102   0.003392 -22.524500  -1.676700   4.035530 -22.583500  -0.002352  -0.000405 -15.040600  -0.007605  -0.000929 -24.348100  -1.998570   4.406140 -36.636900   0.000000   0.001304 -24.400100  -0.001603  -0.001785   0.995131  -0.717714   2.623990  77.729100  28.568300   2.533810  -0.807015  -0.853702  17.819300 -10.656900  -6.084170  -0.162292 -37.576900  27.848800  58.977300  30.158700  -0.010979   0.006462  10.079300  -0.004806   0.004992  28.773200   7.808420  13.896200  24.321400  -0.001810   0.001739  17.025000  -0.001010   0.001394  28.105900   4.571230   8.489070  35.512800   0.003334  -0.006257  23.651500   0.000954  -0.004680  27.290700   3.864790   7.442630  29.410900   0.000770  -0.000189  19.587600   0.000196  -0.000416  31.453900   0.985669   1.610860  47.201700   0.019958  -0.055033  31.436300  -0.004352  -0.039064   1.494700  22.375000   6.664630   0.605868   0.536621  -0.551430  -2.235610   0.191330  -3.166810   0.000000   0.000000   0.000000   2.992570  20.263600  -4.872440  -0.549024  13.230300 -21.780700   1.149470  -9.846650  -8.306330   0.000000   0.000000   0.000000
  1.960330  89.393100  -2.192990   4.515120 -23.697200  17.849400  -1.597000  10.441100   4.700710  -4.180730  20.706000   9.952110 -11.813800  -6.350540  -1.325390 -19.964300 -11.245200   9.558580   0.119056  -3.665720   0.454517 -51.193100  -2.612690 -73.124300  28.877900 -30.103000 -96.339300  -4.709520  32.431500  -5.286900  46.138000  33.465700 -53.572300 -22.382600   0.003818   0.001670  -6.191290  -0.000407   0.000172 -18.918400   3.053580  -8.834600 -15.672700  -0.004098   0.003723 -10.970900  -0.001778   0.001180 -23.562600  -1.729400   3.958210 -23.622100   0.000099  -0.000277 -15.732300   0.001109   0.003466 -22.512900  -1.656290   3.989780 -22.570200  -0.002469  -0.000325 -15.031700  -0.007777  -0.000908 -24.247800  -1.998770   4.423370 -36.486800  -0.000119   0.001383 -24.300100  -0.001670  -0.001656   1.007770  -0.709899   2.569830  77.755700  28.592300   2.505900  -0.788949  -0.802459  17.834600 -10.682400  -6.089340  -0.153402 -37.577000  27.852500  58.938800  30.178900  -0.000603  -0.004652  10.089400  -0.000546  -0.001986  28.772500   7.801350  13.886300  24.319900   0.025675  -0.020626  17.024000   0.015546  -0.017038  28.106400   4.566790   8.479690  35.512900   0.030600  -0.052733  23.651500   0.009805  -0.039436  27.289200   3.867650   7.449220  29.402200   0.024022  -0.044158  19.581700   0.007864  -0.033308  31.442700   0.986080   1.616610  47.185100   0.053717  -0.145135  31.425200  -0.007076  -0.102965   1.537480  22.377800   6.670010   0.614038   0.536444  -0.590505  -2.126560   0.138443  -3.047530   0.000000   0.000000   0.000000   3.026680  20.210300  -4.819290  -0.524826  13.282200 -21.766400   1.121030  -9.875480  -8.294770   0.000000   0.000000   0.000000
  1.928780  89.391000  -2.171880   4.437120 -23.698200  17.726100  -1.627910  10.414600   4.764530  -4.253040  20.647400  10.086600 -11.793800  -6.494260  -1.352890 -19.956800 -11.505000   9.639080   0.067135  -3.579190   0.391609 -51.400700  -2.715190 -72.900500  28.947800 -30.240300 -96.541500  -4.493150  33.213000  -5.559670  45.841000  33.105600 -53.651900 -22.468800   0.003828   0.001605  -6.234410  -0.000391   0.000178 -18.929600   3.066590  -8.865720 -15.682400  -0.004170   0.003775 -10.977700  -0.001849   0.001106 -23.578000  -1.717570   3.929410 -23.636200   0.000000  -0.000250 -15.741700   0.001117   0.003537 -22.506400  -1.643970   3.961260 -22.562500  -0.002584  -0.000241 -15.026600  -0.007949  -0.000886 -24.147000  -2.000420   4.452290 -36.336100  -0.000243   0.001461 -24.199800  -0.001735  -0.001522   1.015360  -0.707811   2.526120  77.773700  28.624400   2.487680  -0.772169  -0.775731  17.840900 -10.710200  -6.098400  -0.147781 -37.559900  27.841100  58.908500  30.204400   0.004151  -0.011368  10.102200   0.001309  -0.005924  28.773500   7.798780  13.879700  24.319700   0.036652  -0.030868  17.023800   0.022160  -0.025135  28.106800   4.565180   8.475430  35.513200   0.042062  -0.075955  23.651800   0.013014  -0.056331  27.288100   3.871350   7.456470  29.400900   0.035838  -0.064108  19.580900   0.011236  -0.047576  31.440600   0.986194   1.618640  47.182000   0.066081  -0.187527  31.423100  -0.009801  -0.132028   1.584860  22.383100   6.674730   0.622004   0.536266  -0.629423  -2.016910   0.081761  -2.914800   0.000000   0.000000   0.000000   3.063260  20.154000  -4.756930  -0.498681  13.338600 -21.745300   1.092140  -9.899840  -8.284700   0.000000   0.000000  -0.000000
  1.895110  89.389800  -2.152490   4.348080 -23.709200  17.574700  -1.655070  10.397300   4.831690  -4.319290  20.607300  10.227800 -11.780000  -6.641240  -1.381820 -19.963400 -11.768600   9.743500   0.034456  -3.515620   0.379857 -51.567100  -2.781290 -72.741600  28.991100 -30.401900 -96.648900  -4.346360  34.003200  -5.857160  45.737500  32.932600 -53.756100 -22.439300   0.003842   0.001640  -6.219670  -0.000380   0.000178 -18.980600   3.068750  -8.845710 -15.723600  -0.004235   0.003829 -11.006500  -0.001915   0.001038 -23.591800  -1.749720   3.998350 -23.652500  -0.000055  -0.000237 -15.752500   0.001082   0.003580 -22.492900  -1.672310   4.031750 -22.551300  -0.002689  -0.000167 -15.019200  -0.008121  -0.000852 -24.002500  -2.014620   4.524320 -36.122600  -0.000337   0.001546 -24.057600  -0.001818  -0.001402   1.015100  -0.711030   2.514440  77.787200  28.671200   2.489040  -0.754478  -0.807958  17.836300 -10.736000  -6.105620  -0.142280 -37.538600  27.827100  58.907100  30.233300  -0.004711  -0.001691  10.116700  -0.002337   0.000427  28.790800   7.803420  13.879900  24.334200   0.034970  -0.025353  17.034000   0.021719  -0.021052  28.106300   4.565600   8.476380  35.539800   0.041612  -0.068424  23.669500   0.012958  -0.051557  27.287100   3.876250   7.465080  29.414300   0.043405  -0.063330  19.589800   0.014039  -0.047339  31.448500   0.986369   1.618300  47.193800   0.059247  -0.159470  31.430900  -0.007158  -0.113129   1.634120  22.392400   6.686430   0.630892   0.544907  -0.665561  -1.920280   0.019731  -2.767490   0.000000   0.000000   0.000000   3.102030  20.101200  -4.689890  -0.478489  13.399000 -21.705200   1.066270  -9.915730  -8.267780  -0.000000   0.000000   0.000000
